<?xml version="1.0" encoding="utf-8"?>
<!-- Generator: Adobe Illustrator 23.0.1, SVG Export Plug-In . SVG Version: 6.00 Build 0)  -->
<svg version="1.1" id="Layer_1" xmlns="http://www.w3.org/2000/svg" xmlns:xlink="http://www.w3.org/1999/xlink" x="0px" y="0px"
	 viewBox="0 0 141.73 141.73" style="enable-background:new 0 0 141.73 141.73;" xml:space="preserve">
<style type="text/css">
	.st0{fill:#F58325;}
	.st1{fill:#FFFFFF;}
	.st2{fill:#1A1C4F;}
	.st3{fill:#3E6D9C;}
</style>
<rect class="st0" width="141.73" height="141.73"/>
<g>
	<path class="st1" d="M31.5,98.32c-3.18,0-5.7-1.17-7.56-3.51c-1.86-2.34-2.79-5.56-2.79-9.66c0-2.11,0.18-4.25,0.55-6.41
		s0.89-4.07,1.56-5.71h4.27c-1.17,2.96-1.76,7-1.76,12.12c0,2.93,0.59,5.19,1.76,6.78c1.17,1.59,2.82,2.38,4.94,2.38h2.51
		c2.98,0,5.16-0.68,6.55-2.03c1.39-1.36,2.08-3.41,2.08-6.15V61.05h4.37v11.04c1.61-3.83,3.62-6.72,6.05-8.66
		c2.43-1.94,5.15-2.91,8.18-2.91c3.88,0,6.81,1.05,8.8,3.16s2.97,5.4,2.97,9.89v12.4h-26c0,4.15-1.03,7.25-3.09,9.29
		c-2.06,2.04-5.3,3.06-9.71,3.06H31.5z M69.62,81.95V73.8c0-3.16-0.69-5.49-2.06-6.98c-1.37-1.49-3.46-2.23-6.25-2.23
		c-5.3,0-9.75,4.35-13.33,13.05v4.32H69.62z"/>
	<path class="st1" d="M83,46.92h4.57v35.04h6.78c0.18,0,0.28,0.07,0.28,0.2v3.56c0,0.17-0.09,0.25-0.28,0.25H83V46.92z"/>
	<path class="st1" d="M93.84,85.97c-0.17,0-0.25-0.08-0.25-0.25v-3.56c0-0.13,0.08-0.2,0.25-0.2h22.04
		c-1.25-1.26-2.33-4.39-3.24-9.41c-0.5-2.96-1.23-5.04-2.18-6.22c-0.95-1.19-2.38-1.78-4.29-1.78c-2.38,0-4.86,0.69-7.45,2.06
		l-1.78-3.54c1.47-0.95,2.96-1.61,4.46-1.98c1.5-0.37,3.11-0.55,4.83-0.55c2.09,0,3.84,0.38,5.25,1.13
		c1.41,0.75,2.52,1.87,3.35,3.35c0.83,1.48,1.46,3.6,1.89,6.36c0.5,3.06,1.07,5.43,1.69,7.09c0.63,1.67,1.35,2.87,2.17,3.6v3.92
		H93.84z M106.79,56.15c-0.89,0-1.59-0.27-2.11-0.8c-0.52-0.54-0.78-1.3-0.78-2.28s0.25-1.75,0.77-2.28c0.51-0.54,1.22-0.8,2.12-0.8
		c0.92,0,1.63,0.28,2.13,0.84c0.5,0.56,0.75,1.31,0.75,2.25s-0.25,1.69-0.75,2.25C108.43,55.87,107.71,56.15,106.79,56.15z"/>
</g>
<rect x="0" y="116.55" class="st2" width="141.73" height="16.79"/>
<rect y="8.4" class="st2" width="141.73" height="16.79"/>
<rect x="0" y="124.94" class="st3" width="141.73" height="16.79"/>
<rect class="st3" width="141.73" height="16.79"/>
</svg>
