<?xml version="1.0" encoding="utf-8"?>
<!-- Generator: Adobe Illustrator 23.0.1, SVG Export Plug-In . SVG Version: 6.00 Build 0)  -->
<svg version="1.1" id="Layer_1" xmlns="http://www.w3.org/2000/svg" xmlns:xlink="http://www.w3.org/1999/xlink" x="0px" y="0px"
	 viewBox="0 0 255.1 255.1" style="enable-background:new 0 0 255.1 255.1;" xml:space="preserve">
<style type="text/css">
	.st0{fill:#FFFFFF;}
	.st1{fill:#0D4C92;}
	.st2{fill:#FDDDAF;}
	.st3{fill:url(#XMLID_2_);}
	.st4{fill:url(#XMLID_3_);}
</style>
<rect x="44.4" y="44.4" transform="matrix(0.7071 0.7071 -0.7071 0.7071 127.5591 -52.8367)" class="st0" width="166.3" height="166.3"/>
<rect x="49.6" y="49.6" transform="matrix(0.7071 0.7071 -0.7071 0.7071 127.5591 -52.8367)" class="st1" width="155.9" height="155.9"/>
<rect x="53.3" y="53.3" transform="matrix(0.7071 0.7071 -0.7071 0.7071 127.5591 -52.8367)" class="st0" width="148.6" height="148.6"/>
<g>
	<g id="XMLID_301_">
		<path id="XMLID_5199_" class="st2" d="M130,105.9c0,0-6.8-0.8-21.7,5.1C95.5,116.1,89,110,89,110s-6.3,16.2-7.8,23.9
			s-0.4,12.4-0.4,12.4s23.9,18.9,37.4,27.4s16.2,9.7,19.3,6.3c4.5-4.9-0.5-7.8-7.4-13c0,0,10.1,7.8,13.5,8.5
			c3.8,0.8,9.6-4.4,5.6-8.8c-4-4.4-11.6-11-11.6-11s13.8,11.9,16.6,12.8c2.8,0.9,5.8-1.5,7.2-3.9c2.9-4.9-2.6-8.5-7.3-13.1
			c-2.9-2.9-7.2-6.4-7.2-6.4s11.2,10.9,16,11.2c5.6,0.4,8.1-5.7,6.2-9.3c-1.9-3.5-10.2-12.3-20.1-22.8
			C141.7,116.3,136.1,106.6,130,105.9z"/>
		<path id="XMLID_5196_" class="st0" d="M134.3,182.4c-2.9,0.1-7.2-2.4-16.4-8.2c-13.4-8.5-37.2-27.2-37.5-27.5
			c-0.2-0.1-0.2-0.2-0.2-0.4c-0.1-0.2-1.1-4.9,0.4-12.6s7.5-23.3,7.8-24c0.1-0.2,0.2-0.4,0.5-0.4c0.2-0.1,0.5,0,0.6,0.2
			c0,0,3.3,3,9.7,2.9c2.8-0.1,5.7-0.8,8.8-2c11.1-4.4,17.7-5.1,20.7-5.2c0.9,0,1.4,0,1.4,0c4.7,0.5,8.8,5.5,13.5,11.3
			c1.9,2.3,3.8,4.8,6,6.9l1.6,1.7c9.4,10,16.8,17.9,18.6,21.3c1.1,2,1,4.7-0.3,6.9c-1.2,2.1-3.3,3.4-5.8,3.4l0,0c-0.2,0-0.5,0-0.7,0
			c-0.8-0.1-2-0.4-3.2-1.1c2.7,2.8,4.4,5.6,2.3,9.1c-1.2,2.1-3.8,4.4-6.5,4.5c-0.5,0-1.1-0.1-1.5-0.2c-0.8-0.2-2.1-1.1-3.8-2.4
			c1.2,1.6,1.4,3.4,0.7,5.2c-1.1,2.4-3.7,4.2-6.3,4.3c-0.4,0-0.7,0-1-0.1c-0.9-0.2-2.3-0.8-4.2-2c0.3,0.6,0.5,1.2,0.6,1.9
			c0.2,1.4-0.5,2.9-1.9,4.4C136.8,181.8,135.7,182.4,134.3,182.4z M81.4,145.8c2.3,1.8,24.5,19.2,37.1,27.2c8.7,5.4,13.1,8,15.6,8
			c1.1,0,1.9-0.5,2.9-1.6c1.1-1.2,1.6-2.3,1.5-3.3c-0.2-1.8-2.1-3.6-5.2-6c-2.1-1.5-3.6-2.7-3.6-2.7c-0.3-0.2-0.4-0.7-0.2-0.9
			c0.2-0.3,0.6-0.4,0.9-0.2l1.4,1.1c0.8,0.5,1.5,1.1,2.2,1.6c4.7,3.3,8.1,5.4,9.6,5.6c0.2,0.1,0.5,0.1,0.8,0.1
			c2-0.1,4.2-1.6,5.1-3.5c0.5-1,0.6-2.6-0.8-4.2c-3.9-4.3-11.5-10.9-11.5-10.9c-0.3-0.2-0.3-0.7-0.1-1c0.2-0.3,0.7-0.3,1-0.1l0,0
			l0,0l0,0c5.5,4.8,14.4,12.1,16.4,12.7c0.4,0.1,0.7,0.2,1.1,0.2c2.1-0.1,4.3-2,5.4-3.8c2-3.5-0.5-6-4.8-10
			c-0.8-0.7-1.6-1.4-2.3-2.2c-0.4-0.4-0.8-0.8-1.2-1.1c-3.2-2.6-6-5.3-6-5.3c-0.2-0.2-0.3-0.7,0-0.9c0.2-0.3,0.7-0.3,0.9-0.1
			c0,0,3.2,2.7,6,5.3c4.4,3.5,7.8,5.6,9.6,5.7c3,0.2,4.6-1.7,5.3-2.7c1-1.7,1.1-3.9,0.2-5.5c-1.7-3.2-9.4-11.5-18.4-21l-1.6-1.7
			c-2.1-2.3-4.2-4.7-6-7c-4.5-5.6-8.5-10.4-12.6-10.9c0,0-0.5-0.1-1.2,0c-2.3,0.1-8.9,0.7-20.2,5.1c-3.2,1.3-6.3,2-9.3,2
			c-5.2,0.2-8.5-1.7-9.9-2.6c-1.3,3.4-6.2,16.4-7.4,22.9C80.7,140.5,81.3,144.9,81.4,145.8z"/>
	</g>
	<g id="XMLID_303_">
		<path id="XMLID_5194_" class="st2" d="M170.1,107.8c0,0-12.5,1-19.8-0.5c-6.2-1.4-16.7-4.5-19.3-3.8s-4.7,0.8-9.4,6
			c-4.8,5.1-9.1,10.3-10.5,11.4c-1.4,1.1,3,4.6,9,4s10.3-5.1,13.4-8.5c3.1-3.4,11.2,4.6,16.6,9.5c5.7,5.3,12.3,13,15.7,16
			c4.1,3.6,7.4,2.8,7.4,2.8S176.5,121,170.1,107.8z"/>
		<path id="XMLID_5191_" class="st0" d="M172.2,145.4L172.2,145.4c-1.4,0-4-0.3-7.1-3c-1.6-1.4-3.7-3.7-6.3-6.3
			c-2.9-3.2-6.3-6.7-9.4-9.7l-1.2-1.1c-4.2-3.8-9.8-9.1-13.1-9.1c-0.6,0-1.1,0.2-1.4,0.6c-3.5,3.9-7.8,8.1-13.8,8.7
			c-5.1,0.5-9.3-1.9-9.9-3.6c-0.2-0.6-0.1-1.2,0.5-1.6c0.8-0.6,2.7-2.8,4.9-5.3c1.7-1.9,3.5-3.9,5.4-6c4.8-5.1,6.9-5.6,9.5-6.1
			l0.3-0.1c2-0.5,7.8,1,13.5,2.4c2.2,0.5,4.3,1.1,6.1,1.4c4,0.8,9.7,0.9,13.7,0.8c3.4-0.1,5.9-0.3,5.9-0.3c0.3,0,0.5,0.2,0.7,0.4
			c6.3,13.3,3.1,36.2,3,37.2c-0.1,0.3-0.2,0.5-0.5,0.5C173.1,145.3,172.8,145.4,172.2,145.4z M135.2,114.8c3.8-0.1,9.4,5.2,14,9.4
			l1.2,1.1c3.2,2.9,6.6,6.5,9.5,9.7c2.5,2.6,4.6,4.9,6.1,6.3c2.7,2.4,5,2.7,6.1,2.7l0,0c0.1,0,0.2,0,0.2,0
			c0.5-3.4,2.7-23.6-2.7-35.5c-0.9,0.1-2.9,0.2-5.5,0.2c-4.2,0.1-9.9,0-14-0.8c-1.8-0.4-3.9-0.9-6.1-1.4c-5.1-1.3-11.1-2.8-12.9-2.4
			l-0.3,0.1c-2.4,0.5-4.4,0.9-8.8,5.7c-2,2.1-3.8,4.2-5.4,6c-2.5,2.8-4.2,4.8-5.1,5.4c0,0,0.1,0.2,0.4,0.6c1,1.1,4.1,2.6,8.1,2.2
			c5.5-0.5,9.6-4.5,12.9-8.2C133.4,115.2,134.3,114.8,135.2,114.8z"/>
	</g>
	<g id="XMLID_304_">
		<path id="XMLID_5189_" class="st2" d="M94.7,157.2c-1.7,1.5-4.3,1.4-5.8-0.3l-1.6-1.8c-1.5-1.7-1.4-4.3,0.3-5.8l8-7.3
			c1.7-1.5,4.3-1.4,5.8,0.3l1.6,1.8c1.5,1.7,1.4,4.3-0.3,5.8L94.7,157.2z"/>
		<path id="XMLID_5186_" class="st0" d="M92.1,159c-1.4,0-2.7-0.5-3.7-1.6l-1.6-1.7c-1.8-2-1.7-5,0.3-6.8l8.1-7.3
			c0.8-0.8,2-1.2,3.1-1.3c1.4,0,2.7,0.5,3.7,1.6l1.6,1.8c1.8,2,1.7,5-0.3,6.8l-8.1,7.3C94.3,158.5,93.2,159,92.1,159z M98.3,141.6
			c-0.8,0-1.7,0.3-2.3,0.9l-8.1,7.3c-1.4,1.3-1.5,3.5-0.2,4.9l1.6,1.8c1.2,1.4,3.5,1.4,4.9,0.2l8.1-7.3c1.4-1.3,1.5-3.5,0.2-4.9
			l-1.6-1.8C100.3,142,99.3,141.6,98.3,141.6z"/>
	</g>
	<g id="XMLID_305_">
		<path id="XMLID_5184_" class="st2" d="M101.7,166.5c-1.7,1.5-4.3,1.4-5.8-0.3l-1.6-1.8c-1.5-1.7-1.4-4.3,0.3-5.8l8.1-7.3
			c1.7-1.5,4.3-1.4,5.8,0.3l1.6,1.8c1.5,1.7,1.4,4.3-0.3,5.8L101.7,166.5z"/>
		<path id="XMLID_5181_" class="st0" d="M99,168.2c-1.4,0-2.7-0.5-3.7-1.6l-1.6-1.8c-1.7-2-1.7-5,0.3-6.8l8.1-7.3
			c0.8-0.8,2-1.2,3.1-1.2c1.4,0,2.7,0.5,3.7,1.6l1.6,1.8c1.8,2,1.7,5-0.3,6.8l-8.1,7.3C101.3,167.7,100.1,168.2,99,168.2z
			 M105.3,150.8c-0.8,0-1.7,0.3-2.3,0.9l-8.1,7.3c-1.4,1.3-1.5,3.5-0.2,4.9l1.6,1.8c1.2,1.4,3.5,1.4,4.9,0.2l8.1-7.4
			c1.4-1.3,1.5-3.5,0.2-4.9l-1.6-1.7C107.2,151.2,106.3,150.8,105.3,150.8z"/>
	</g>
	<g id="XMLID_306_">
		<path id="XMLID_5179_" class="st2" d="M111.4,173.4c-1.7,1.5-4.3,1.4-5.8-0.3l-1.6-1.8c-1.5-1.7-1.4-4.3,0.3-5.8l8.1-7.3
			c1.7-1.5,4.3-1.4,5.8,0.3l1.6,1.8c1.5,1.7,1.4,4.3-0.3,5.8L111.4,173.4z"/>
		<path id="XMLID_5176_" class="st0" d="M108.8,175.1c-1.4,0-2.7-0.5-3.7-1.6l-1.6-1.8c-0.8-1-1.3-2.2-1.3-3.5
			c0.1-1.3,0.6-2.5,1.6-3.3l8.1-7.3c0.8-0.8,2-1.2,3.1-1.3c1.4,0,2.7,0.5,3.7,1.6l1.6,1.8c1.8,2,1.7,5-0.3,6.8l-8.1,7.3
			C111,174.7,109.9,175.1,108.8,175.1z M115,157.8c-0.8,0-1.7,0.3-2.3,0.9l-8.1,7.3c-0.7,0.6-1.1,1.4-1.1,2.4
			c-0.1,0.9,0.3,1.8,0.9,2.5l1.6,1.8c1.2,1.4,3.5,1.4,4.9,0.2l8.1-7.3c1.4-1.3,1.5-3.5,0.2-4.9l-1.6-1.8
			C117,158.1,116,157.8,115,157.8z"/>
	</g>
	<g id="XMLID_307_">
		<path id="XMLID_5174_" class="st2" d="M121.4,179.8c-1.7,1.5-4.3,1.4-5.8-0.3l-1.6-1.8c-1.5-1.7-1.4-4.3,0.3-5.8l8.1-7.3
			c1.7-1.5,4.3-1.4,5.8,0.3l1.6,1.8c1.5,1.7,1.4,4.3-0.3,5.8L121.4,179.8z"/>
		<path id="XMLID_5105_" class="st0" d="M118.8,181.5c-1.4,0-2.7-0.5-3.7-1.6l-1.6-1.8c-0.8-1-1.3-2.2-1.2-3.5
			c0.1-1.3,0.6-2.5,1.6-3.3l8.1-7.3c0.8-0.8,2-1.2,3.1-1.3c1.4,0,2.7,0.5,3.7,1.6l1.6,1.8c0.8,1,1.3,2.2,1.3,3.5
			c-0.1,1.3-0.6,2.5-1.6,3.3l-8.1,7.3C121.1,181.1,119.9,181.5,118.8,181.5z M125.1,164.2c-0.8,0-1.7,0.3-2.3,0.9l-8.1,7.3
			c-0.7,0.6-1.1,1.4-1.1,2.4c-0.1,0.9,0.3,1.8,0.9,2.5l1.6,1.8c1.2,1.4,3.5,1.4,4.9,0.2l8.1-7.3c0.7-0.6,1.1-1.4,1.1-2.4
			c0.1-0.9-0.3-1.8-0.9-2.5l-1.6-1.8C127,164.6,126,164.2,125.1,164.2z"/>
	</g>
	<g id="XMLID_308_">
		
			<radialGradient id="XMLID_2_" cx="43.8441" cy="122.8074" r="99.4219" gradientTransform="matrix(0.9997 2.550000e-02 -2.550000e-02 0.9997 -1.9893 -3.3679)" gradientUnits="userSpaceOnUse">
			<stop  offset="0.2182" style="stop-color:#5A5B5D"/>
			<stop  offset="0.3089" style="stop-color:#636365"/>
			<stop  offset="0.454" style="stop-color:#7A7B7C"/>
			<stop  offset="0.6354" style="stop-color:#9F9EA1"/>
			<stop  offset="0.8438" style="stop-color:#D4D3D4"/>
			<stop  offset="1" style="stop-color:#FFFFFF"/>
		</radialGradient>
		<polygon id="XMLID_5102_" class="st3" points="96.7,108.9 81.1,152.1 51.2,141.5 66.4,98.8 		"/>
		<path id="XMLID_5098_" class="st0" d="M81.1,152.8c-0.1,0-0.2,0-0.2-0.1l-30-10.6c-0.2-0.1-0.3-0.2-0.4-0.4
			c-0.1-0.2-0.1-0.4,0-0.5l15.2-42.7c0.2-0.4,0.5-0.5,0.8-0.4l30.3,10.1c0.2,0.1,0.3,0.2,0.4,0.4c0.1,0.2,0.1,0.4,0,0.5l-15.5,43.2
			C81.7,152.6,81.4,152.7,81.1,152.8z M52,141.1l28.7,10.2l15.1-41.9l-29-9.8L52,141.1z"/>
	</g>
	<g id="XMLID_309_">
		
			<radialGradient id="XMLID_3_" cx="221.0869" cy="117.4483" r="70.6859" gradientTransform="matrix(0.9997 2.550000e-02 -2.550000e-02 0.9997 -1.9893 -3.3679)" gradientUnits="userSpaceOnUse">
			<stop  offset="0.2182" style="stop-color:#5A5B5D"/>
			<stop  offset="0.3089" style="stop-color:#636365"/>
			<stop  offset="0.454" style="stop-color:#7A7B7C"/>
			<stop  offset="0.6354" style="stop-color:#9F9EA1"/>
			<stop  offset="0.8438" style="stop-color:#D4D3D4"/>
			<stop  offset="1" style="stop-color:#FFFFFF"/>
		</radialGradient>
		<polygon id="XMLID_4712_" class="st4" points="197.4,100 203.9,145.5 172.5,150.1 166,105.2 		"/>
		<path id="XMLID_3547_" class="st0" d="M172.5,150.8c-0.2,0-0.3-0.1-0.5-0.2s-0.2-0.3-0.3-0.5l-6.4-44.9c-0.1-0.4,0.2-0.7,0.5-0.8
			l31.5-5.2c0.2,0,0.4,0,0.5,0.2c0.2,0.1,0.2,0.3,0.3,0.5l6.5,45.4c0.1,0.4-0.2,0.7-0.6,0.8L172.5,150.8
			C172.5,150.8,172.5,150.8,172.5,150.8z M166.7,105.8l6.3,43.5l30.1-4.5l-6.3-44.1L166.7,105.8z"/>
	</g>
</g>
</svg>
